<svg width="40" height="40" viewBox="0 0 40 40" fill="none" xmlns="http://www.w3.org/2000/svg">
<g clip-path="url(#clip0_3614_31752)">
<path d="M20 4C11.1635 4 4 11.1635 4 20C4 28.837 11.1635 36 20 36C28.837 36 36 28.837 36 20C36 11.1635 28.837 4 20 4ZM20 34.0315C12.2805 34.0315 6 27.7195 6 19.9999C6 12.2804 12.2805 5.99994 20 5.99994C27.7195 5.99994 34 12.2805 34 19.9999C34 27.7194 27.7195 34.0315 20 34.0315ZM25.6565 14.3435C25.266 13.953 24.633 13.953 24.2425 14.3435L20 18.586L15.7575 14.3435C15.367 13.953 14.734 13.953 14.343 14.3435C13.9525 14.734 13.9525 15.367 14.343 15.7575L18.5855 20L14.343 24.2425C13.9525 24.6325 13.9525 25.2665 14.343 25.6565C14.7335 26.047 15.3665 26.047 15.7575 25.6565L20 21.414L24.2425 25.6565C24.633 26.047 25.266 26.047 25.6565 25.6565C26.047 25.2665 26.047 24.6325 25.6565 24.2425L21.414 20L25.6565 15.7575C26.0475 15.3665 26.0475 14.7335 25.6565 14.3435Z" fill="#333333"/>
</g>
<defs>
<clipPath id="clip0_3614_31752">
<rect width="32" height="32" fill="white" transform="translate(4 4)"/>
</clipPath>
</defs>
</svg>
