<svg width="16" height="16" viewBox="0 0 16 16" fill="none" xmlns="http://www.w3.org/2000/svg">
<g clip-path="url(#clip0_739_670)">
<path fill-rule="evenodd" clip-rule="evenodd" d="M1.8114 1.8114C0.75 2.87425 0.75 4.58235 0.75 8C0.75 11.4177 0.75 13.1265 1.8114 14.1879C2.87425 15.25 4.58235 15.25 8 15.25C11.4177 15.25 13.1265 15.25 14.1879 14.1879C15.25 13.1272 15.25 11.4177 15.25 8C15.25 4.58235 15.25 2.87353 14.1879 1.8114C13.1272 0.75 11.4177 0.75 8 0.75C4.58235 0.75 2.87353 0.75 1.8114 1.8114ZM10.2468 8.06815C10.1134 7.8492 9.98215 7.63532 9.85455 7.48307C9.71898 7.32067 9.48118 7.09737 9.11723 7.11187C8.75328 7.12637 8.53432 7.3678 8.4118 7.54035C8.29652 7.70348 8.18343 7.92605 8.06743 8.15515L6.62612 10.9972C6.57175 11.1045 6.5268 11.1936 6.4862 11.2705C6.42792 11.1862 6.3704 11.1013 6.31365 11.016L6.18605 10.8232C6.05983 10.6269 5.92509 10.4363 5.78222 10.2519C5.64835 10.077 5.48007 9.93142 5.28778 9.8241C5.09161 9.72364 4.87695 9.66442 4.65703 9.6501C4.45983 9.63125 4.2242 9.63125 3.95813 9.63125H2.925C2.78079 9.63125 2.64248 9.68854 2.54051 9.79051C2.43854 9.89248 2.38125 10.0308 2.38125 10.175C2.38125 10.3192 2.43854 10.4575 2.54051 10.5595C2.64248 10.6615 2.78079 10.7188 2.925 10.7188H3.93565C4.23072 10.7188 4.41488 10.7188 4.55625 10.7325C4.68675 10.7449 4.7404 10.7644 4.77448 10.7833C4.80855 10.8014 4.85495 10.834 4.9376 10.9362C5.02678 11.0464 5.12973 11.1994 5.29285 11.4452L5.42843 11.6475C5.56473 11.8527 5.69885 12.0535 5.82935 12.1978C5.96855 12.3522 6.2078 12.5581 6.5616 12.5371C6.91395 12.516 7.1271 12.2833 7.24818 12.1137C7.35983 11.9549 7.4693 11.7388 7.58095 11.5191L9.02153 8.6786C9.0788 8.56623 9.12593 8.4727 9.1687 8.39223C9.21728 8.46908 9.27238 8.55898 9.33763 8.66555L9.81177 9.43985C9.95677 9.67692 10.0858 9.88645 10.2105 10.0518C10.3454 10.2308 10.4998 10.3918 10.7122 10.5107C10.9247 10.6296 11.1422 10.6774 11.3655 10.6992C11.5714 10.7187 11.8171 10.7188 12.0948 10.7188H13.075C13.2192 10.7188 13.3575 10.6615 13.4595 10.5595C13.5615 10.4575 13.6188 10.3192 13.6188 10.175C13.6188 10.0308 13.5615 9.89248 13.4595 9.79051C13.3575 9.68854 13.2192 9.63125 13.075 9.63125H12.118C11.8106 9.63125 11.6177 9.63125 11.4698 9.61675C11.3335 9.60297 11.2785 9.58123 11.2437 9.56165C11.2081 9.54208 11.161 9.50655 11.0791 9.39707C10.9892 9.2789 10.8884 9.11433 10.7275 8.85188L10.2468 8.06815Z" fill="url(#paint0_linear_739_670)"/>
</g>
<defs>
<linearGradient id="paint0_linear_739_670" x1="5.69546" y1="4.39799" x2="11.7821" y2="13.3377" gradientUnits="userSpaceOnUse">
<stop stop-color="#2170F4"/>
<stop offset="1" stop-color="#796FEC"/>
</linearGradient>
<clipPath id="clip0_739_670">
<rect width="16" height="16" fill="white"/>
</clipPath>
</defs>
</svg>
