<svg width="48" height="48" viewBox="0 0 48 48" fill="none" xmlns="http://www.w3.org/2000/svg">
<path d="M44.121 1H22.4512C22.4511 2.28462 22.7041 3.55666 23.1957 4.7435C23.6873 5.93034 24.4078 7.00873 25.3162 7.91709C26.2245 8.82545 27.3029 9.54599 28.4898 10.0376C29.6766 10.5292 30.9487 10.7821 32.2333 10.7821H36.2251V14.6363C36.2286 20.0339 40.6033 24.4087 46.0009 24.4122V2.87986C46.0009 1.84194 45.1595 1 44.121 1Z" fill="#2684FF"/>
<path d="M33.3991 11.7969H11.7295C11.7328 17.1945 16.1075 21.5693 21.5052 21.5728H25.4971V25.4393C25.504 30.8369 29.8816 35.2087 35.2792 35.2087V13.6771C35.2792 12.6388 34.4374 11.7969 33.3991 11.7969Z" fill="url(#paint0_linear_591_351)"/>
<path d="M22.6698 22.5879H1C1 27.9904 5.37976 32.37 10.7821 32.37H14.7864V36.224C14.79 41.6166 19.157 45.9895 24.5499 45.9998V24.4679C24.5499 23.4297 23.7081 22.5879 22.6698 22.5879Z" fill="url(#paint1_linear_591_351)"/>
<defs>
<linearGradient id="paint0_linear_591_351" x1="2320.33" y1="15.5662" x2="1404.13" y2="971.579" gradientUnits="userSpaceOnUse">
<stop offset="0.18" stop-color="#0052CC"/>
<stop offset="1" stop-color="#2684FF"/>
</linearGradient>
<linearGradient id="paint1_linear_591_351" x1="2371.65" y1="33.2403" x2="1311.84" y2="1075.96" gradientUnits="userSpaceOnUse">
<stop offset="0.18" stop-color="#0052CC"/>
<stop offset="1" stop-color="#2684FF"/>
</linearGradient>
</defs>
</svg>
