<svg width="75" height="57" viewBox="0 0 75 57" fill="none" xmlns="http://www.w3.org/2000/svg">
<rect x="1.3999" y="1" width="72.2" height="55" rx="27.5" fill="#DDEAFF"/>
<rect x="1.3999" y="1" width="72.2" height="55" rx="27.5" stroke="#D3E4FF" stroke-width="2"/>
<path fill-rule="evenodd" clip-rule="evenodd" d="M22.9033 14.4156C20.3999 16.8345 20.3999 20.7219 20.3999 28.5C20.3999 36.2781 20.3999 40.1671 22.9033 42.5827C25.4102 45 29.439 45 37.4999 45C45.5608 45 49.5913 45 52.0947 42.5827C54.5999 40.1688 54.5999 36.2781 54.5999 28.5C54.5999 20.7219 54.5999 16.8328 52.0947 14.4156C49.593 12 45.5608 12 37.4999 12C29.439 12 25.4085 12 22.9033 14.4156ZM42.7992 28.6551C42.4845 28.1568 42.175 27.67 41.8741 27.3235C41.5543 26.9539 40.9934 26.4457 40.135 26.4787C39.2766 26.5117 38.7602 27.0612 38.4712 27.4539C38.1993 27.8252 37.9325 28.3317 37.6589 28.8531L34.2594 35.3211C34.1312 35.5653 34.0252 35.7682 33.9294 35.9431C33.792 35.7513 33.6563 35.5582 33.5224 35.364L33.2215 34.9251C32.9238 34.4785 32.606 34.0447 32.269 33.6249C31.9532 33.227 31.5563 32.8956 31.1028 32.6514C30.6401 32.4228 30.1338 32.288 29.6151 32.2554C29.15 32.2125 28.5942 32.2125 27.9667 32.2125H25.5299C25.1898 32.2125 24.8636 32.3429 24.623 32.575C24.3825 32.807 24.2474 33.1218 24.2474 33.45C24.2474 33.7782 24.3825 34.093 24.623 34.325C24.8636 34.5571 25.1898 34.6875 25.5299 34.6875H27.9136C28.6096 34.6875 29.044 34.6875 29.3774 34.7188C29.6852 34.7469 29.8117 34.7914 29.8921 34.8343C29.9725 34.8756 30.0819 34.9498 30.2769 35.1825C30.4872 35.4333 30.73 35.7815 31.1148 36.3408L31.4345 36.8011C31.756 37.2681 32.0724 37.7252 32.3802 38.0535C32.7085 38.405 33.2728 38.8735 34.1073 38.8257C34.9383 38.7778 35.4411 38.2482 35.7266 37.8621C35.99 37.5007 36.2482 37.009 36.5115 36.5091L39.9093 30.0444C40.0444 29.7886 40.1555 29.5758 40.2564 29.3927C40.371 29.5676 40.501 29.7722 40.6549 30.0147L41.7732 31.7769C42.1152 32.3164 42.4196 32.7933 42.7137 33.1695C43.0317 33.577 43.396 33.9434 43.897 34.214C44.398 34.4846 44.911 34.5934 45.4377 34.6429C45.9234 34.6875 46.5031 34.6875 47.158 34.6875H49.4699C49.81 34.6875 50.1362 34.5571 50.3768 34.325C50.6173 34.093 50.7524 33.7782 50.7524 33.45C50.7524 33.1218 50.6173 32.807 50.3768 32.575C50.1362 32.3429 49.81 32.2125 49.4699 32.2125H47.2127C46.4877 32.2125 46.0328 32.2125 45.684 32.1795C45.3625 32.1481 45.2325 32.0987 45.1504 32.0541C45.0667 32.0096 44.9555 31.9287 44.7623 31.6795C44.5502 31.4106 44.3125 31.0361 43.9329 30.4388L42.7992 28.6551Z" fill="url(#paint0_linear_805_397)"/>
<defs>
<linearGradient id="paint0_linear_805_397" x1="32.0644" y1="20.3023" x2="45.729" y2="41.1021" gradientUnits="userSpaceOnUse">
<stop stop-color="#2170F4"/>
<stop offset="1" stop-color="#796FEC"/>
</linearGradient>
</defs>
</svg>
