<svg width="0" height="0" class="hidden">
  <symbol fill="none" xmlns="http://www.w3.org/2000/svg" viewBox="0 0 48 48" id="Hubspot">
    <path d="M35.3848 15.86V10.168C36.1411 9.81536 36.7816 9.25661 37.232 8.55646C37.6825 7.85631 37.9244 7.04341 37.9299 6.21196V6.07796C37.9267 4.9155 37.4616 3.80154 36.6363 2.97937C35.8109 2.1572 34.6923 1.69365 33.5248 1.68995H33.3902C32.223 1.69364 31.1047 2.15692 30.2794 2.97866C29.454 3.8004 28.9887 4.91385 28.985 6.07596V6.20996C28.9897 7.03648 29.228 7.845 29.6728 8.54288C30.1176 9.24077 30.7508 9.79981 31.5 10.156L31.5261 10.168V15.872C29.3397 16.2026 27.2812 17.1069 25.5621 18.492L25.5863 18.472L9.86192 6.28196C10.1613 5.16527 10.0624 3.97977 9.58206 2.92757C9.10172 1.87537 8.26971 1.02163 7.22787 0.511908C6.18603 0.00218255 4.99888 -0.131966 3.86881 0.132333C2.73874 0.396633 1.73573 1.04302 1.03079 1.96128C0.325848 2.87954 -0.0373766 4.01282 0.00304349 5.1679C0.0434635 6.32298 0.485026 7.42835 1.25245 8.29553C2.01987 9.16272 3.06563 9.73803 4.21143 9.92338C5.35723 10.1087 6.53213 9.89264 7.53581 9.31196L7.51171 9.32396L22.9729 21.306C21.6088 23.3475 20.8832 25.7459 20.8878 28.198C20.8818 30.783 21.6874 33.3052 23.1918 35.412L23.1657 35.372L18.4613 40.058C18.0845 39.9379 17.6919 39.8739 17.2962 39.868H17.2922C16.4845 39.868 15.695 40.1065 15.0234 40.5532C14.3518 41 13.8284 41.635 13.5193 42.378C13.2102 43.121 13.1294 43.9385 13.2869 44.7272C13.4445 45.516 13.8334 46.2405 14.4046 46.8091C14.9757 47.3777 15.7033 47.765 16.4955 47.9219C17.2877 48.0788 18.1088 47.9982 18.855 47.6905C19.6012 47.3828 20.239 46.8616 20.6877 46.1929C21.1364 45.5243 21.376 44.7382 21.376 43.934C21.3698 43.5295 21.3021 43.1283 21.1751 42.744L21.1851 42.772L25.8394 38.138C27.3563 39.2905 29.1174 40.0834 30.9884 40.4563C32.8595 40.8292 34.7913 40.7723 36.637 40.29C38.4827 39.8077 40.1936 38.9127 41.6395 37.673C43.0855 36.4333 44.2285 34.8816 44.9815 33.1359C45.7346 31.3902 46.0778 29.4965 45.9852 27.5989C45.8926 25.7012 45.3665 23.8496 44.447 22.1848C43.5275 20.52 42.2388 19.086 40.6789 17.9917C39.119 16.8975 37.329 16.1718 35.4451 15.87L35.3728 15.86H35.3848ZM33.4484 34.616C32.1756 34.6124 30.9323 34.2334 29.8757 33.5268C28.8191 32.8201 27.9965 31.8176 27.5117 30.6458C27.027 29.4739 26.902 28.1854 27.1523 26.9428C27.4027 25.7002 28.0173 24.5594 28.9184 23.6644C29.8196 22.7694 30.9669 22.1603 32.2155 21.9141C33.4641 21.668 34.758 21.7957 35.9337 22.2812C37.1095 22.7668 38.1143 23.5883 38.8214 24.6421C39.5285 25.6959 39.9061 26.9347 39.9065 28.202V28.206C39.9067 29.0484 39.7403 29.8825 39.4167 30.6608C39.093 31.4391 38.6185 32.1463 38.0203 32.742C37.422 33.3376 36.7117 33.81 35.93 34.1323C35.1483 34.4545 34.3105 34.6203 33.4645 34.62L33.4484 34.616Z" fill="#F8761F"></path>
  </symbol>
  <symbol fill="none" xmlns="http://www.w3.org/2000/svg" viewBox="0 0 48 48" id="Jira">
    <path d="M44.121 1H22.4512C22.4511 2.28462 22.7041 3.55666 23.1957 4.7435C23.6873 5.93034 24.4078 7.00873 25.3162 7.91709C26.2245 8.82545 27.3029 9.54599 28.4898 10.0376C29.6766 10.5292 30.9487 10.7821 32.2333 10.7821H36.2251V14.6363C36.2286 20.0339 40.6033 24.4087 46.0009 24.4122V2.87986C46.0009 1.84194 45.1595 1 44.121 1Z" fill="#2684FF"></path>
    <path d="M33.3991 11.7969H11.7295C11.7328 17.1945 16.1075 21.5693 21.5052 21.5728H25.4971V25.4393C25.504 30.8369 29.8816 35.2087 35.2792 35.2087V13.6771C35.2792 12.6388 34.4374 11.7969 33.3991 11.7969Z" fill="url(#paint0_linear_591_351)"></path>
    <path d="M22.6698 22.5879H1C1 27.9904 5.37976 32.37 10.7821 32.37H14.7864V36.224C14.79 41.6166 19.157 45.9895 24.5499 45.9998V24.4679C24.5499 23.4297 23.7081 22.5879 22.6698 22.5879Z" fill="url(#paint1_linear_591_351)"></path>
    <defs>
      <linearGradient id="paint0_linear_591_351" x1="2320.33" y1="15.5662" x2="1404.13" y2="971.579" gradientUnits="userSpaceOnUse">
        <stop offset="0.18" stop-color="#0052CC"></stop>
        <stop offset="1" stop-color="#2684FF"></stop>
      </linearGradient>
      <linearGradient id="paint1_linear_591_351" x1="2371.65" y1="33.2403" x2="1311.84" y2="1075.96" gradientUnits="userSpaceOnUse">
        <stop offset="0.18" stop-color="#0052CC"></stop>
        <stop offset="1" stop-color="#2684FF"></stop>
      </linearGradient>
    </defs>
  </symbol>
  <symbol fill="none" xmlns="http://www.w3.org/2000/svg" viewBox="0 0 48 48" id="Salesforce">
    <path d="M19.7198 11.5728C21.2481 10.0001 23.3758 9.02465 25.7289 9.02465C28.8572 9.02465 31.5863 10.7475 33.0396 13.305C34.3396 12.7313 35.7478 12.4357 37.1716 12.4375C42.8136 12.4375 47.3876 16.9943 47.3876 22.6154C47.3876 28.2371 42.8136 32.7941 37.1716 32.7941C36.4958 32.7945 35.8217 32.7281 35.1593 32.5959C33.8793 34.8507 31.4405 36.3741 28.6411 36.3741C27.509 36.3756 26.3915 36.1215 25.374 35.6314C24.0766 38.6455 21.0537 40.759 17.5306 40.759C13.8618 40.759 10.7351 38.4662 9.53482 35.2506C9.01044 35.3608 8.46698 35.418 7.90943 35.418C3.54134 35.418 1.97815e-05 31.8846 1.97815e-05 27.525C-0.00308969 26.1434 0.360439 24.7852 1.05438 23.5855C1.74832 22.3859 2.74845 21.3869 3.9551 20.6879C3.4542 19.5487 3.19635 18.3198 3.19762 17.0778C3.19762 12.0642 7.31872 8 12.402 8C15.3864 8 18.0385 9.40145 19.7198 11.5728Z" fill="#00A1E0"></path>
    <path d="M6.86323 24.9882C6.83358 25.0649 6.87398 25.0808 6.88361 25.0943C6.97255 25.1582 7.06298 25.2042 7.15414 25.2554C7.63757 25.5089 8.09376 25.583 8.57108 25.583C9.54312 25.583 10.1466 25.0724 10.1466 24.2501V24.2342C10.1466 23.4742 9.46548 23.198 8.82622 22.9989L8.74321 22.972C8.26127 22.8174 7.84547 22.6842 7.84547 22.3707V22.3542C7.84547 22.0861 8.08839 21.8886 8.46509 21.8886C8.88366 21.8886 9.38043 22.0259 9.70044 22.2007C9.70044 22.2007 9.79419 22.2607 9.82866 22.1707C9.84756 22.1227 10.0095 21.6921 10.0266 21.6454C10.0447 21.5947 10.0123 21.5574 9.9793 21.5375C9.61409 21.3178 9.10917 21.168 8.58664 21.168L8.48936 21.1687C7.59977 21.1687 6.97867 21.6994 6.97867 22.4602V22.4761C6.97867 23.2782 7.66388 23.5381 8.30574 23.7194L8.40913 23.7509C8.87681 23.8927 9.28001 24.0148 9.28001 24.3402V24.3561C9.28001 24.6535 9.018 24.8749 8.59535 24.8749C8.43137 24.8749 7.90828 24.8716 7.34314 24.5188C7.27495 24.4794 7.23511 24.4509 7.18249 24.4196C7.1547 24.4022 7.0854 24.372 7.05501 24.4628L6.86323 24.9882ZM21.0937 24.9882C21.0641 25.0649 21.1045 25.0808 21.1141 25.0943C21.203 25.1582 21.2935 25.2042 21.3846 25.2554C21.8679 25.5089 22.3243 25.583 22.8016 25.583C23.7736 25.583 24.3771 25.0724 24.3771 24.2501V24.2342C24.3771 23.4742 23.696 23.198 23.0567 22.9989L22.9737 22.972C22.4918 22.8174 22.0758 22.6842 22.0758 22.3707V22.3542C22.0758 22.0861 22.3189 21.8886 22.6956 21.8886C23.1142 21.8886 23.6109 22.0259 23.9309 22.2007C23.9309 22.2007 24.0247 22.2607 24.0591 22.1707C24.078 22.1227 24.24 21.6921 24.2569 21.6454C24.2752 21.5947 24.2428 21.5574 24.2096 21.5375C23.8446 21.3178 23.3395 21.168 22.8171 21.168L22.7199 21.1687C21.8301 21.1687 21.2092 21.6994 21.2092 22.4602V22.4761C21.2092 23.2782 21.8942 23.5381 22.5362 23.7194L22.6394 23.7509C23.1073 23.8927 23.5111 24.0148 23.5111 24.3402V24.3561C23.5111 24.6535 23.2483 24.8749 22.8258 24.8749C22.3824 24.8781 21.9475 24.7544 21.5736 24.5188C21.5054 24.4794 21.4649 24.4522 21.4137 24.4196C21.3961 24.4083 21.3137 24.3768 21.2853 24.4628L21.0937 24.9882ZM30.8084 23.3779C30.8084 23.8428 30.7206 24.2088 30.5479 24.4674C30.3771 24.7236 30.1186 24.848 29.758 24.848C29.3969 24.848 29.1397 24.7241 28.9716 24.4674C28.8015 24.2093 28.7152 23.8428 28.7152 23.3779C28.7152 22.914 28.8015 22.5486 28.9716 22.2927C29.1397 22.0393 29.3969 21.9159 29.758 21.9159C30.1186 21.9159 30.3769 22.0393 30.5485 22.2925C30.7208 22.5487 30.8084 22.914 30.8084 23.3779ZM31.6198 22.5165C31.5402 22.2506 31.416 22.016 31.2506 21.8206C31.0851 21.6246 30.8759 21.4674 30.6274 21.3526C30.3797 21.2386 30.0867 21.1806 29.758 21.1806C29.4286 21.1806 29.1356 21.2386 28.8879 21.3526C28.6396 21.4672 28.4302 21.6246 28.2642 21.8206C28.0995 22.0166 27.9751 22.2514 27.8949 22.5165C27.816 22.7813 27.7763 23.0707 27.7763 23.3779C27.7763 23.6854 27.816 23.9755 27.8949 24.2393C27.9753 24.5047 28.0987 24.7393 28.2649 24.9355C28.4344 25.1347 28.6474 25.2933 28.8879 25.3994C29.1362 25.5109 29.4286 25.5674 29.758 25.5674C30.0867 25.5674 30.3791 25.5107 30.6274 25.3994C30.868 25.2933 31.081 25.1347 31.2506 24.9355C31.416 24.74 31.5402 24.5054 31.6198 24.2393C31.6995 23.9747 31.7394 23.6848 31.7394 23.3779C31.7394 23.0714 31.6995 22.7813 31.6198 22.5165ZM38.2828 24.7241C38.2559 24.6462 38.1796 24.6754 38.1796 24.6754C38.0615 24.7201 37.9359 24.7615 37.8023 24.7821C37.655 24.8036 37.5063 24.8141 37.3574 24.8134C36.9646 24.8134 36.6526 24.6981 36.4291 24.4701C36.2051 24.2421 36.0795 23.8735 36.0808 23.3746C36.0822 22.9208 36.1931 22.5793 36.3921 22.3193C36.59 22.0607 36.8909 21.928 37.2926 21.928C37.6274 21.928 37.8826 21.9659 38.1499 22.0493C38.1499 22.0493 38.214 22.0768 38.2444 21.9939C38.3152 21.7993 38.368 21.6599 38.4436 21.446C38.4651 21.3852 38.4125 21.3592 38.3936 21.3519C38.2883 21.3113 38.0399 21.2452 37.8522 21.2172C37.6767 21.1907 37.4716 21.1766 37.2433 21.1766C36.9024 21.1766 36.5987 21.2339 36.3387 21.3486C36.0795 21.4626 35.8595 21.62 35.6854 21.816C35.5112 22.012 35.3789 22.2466 35.2905 22.512C35.2027 22.7766 35.1582 23.0674 35.1582 23.3746C35.1582 24.0393 35.3398 24.5768 35.6981 24.9701C36.0572 25.3648 36.5968 25.5654 37.3 25.5654C37.7158 25.5654 38.1425 25.4821 38.4488 25.3628C38.4488 25.3628 38.5077 25.3348 38.4822 25.2675L38.2828 24.7241ZM39.7027 22.9329C39.741 22.6748 39.8133 22.4602 39.9247 22.2929C40.0927 22.0389 40.3492 21.8994 40.7098 21.8994C41.0701 21.8994 41.3084 22.0394 41.4793 22.2929C41.5927 22.4602 41.642 22.6842 41.6614 22.9329H39.7027ZM42.4345 22.3656C42.3655 22.1088 42.1947 21.8495 42.0828 21.7309C41.9058 21.5428 41.7331 21.4114 41.5615 21.3382C41.3126 21.2337 41.0449 21.1802 40.7744 21.1808C40.4316 21.1808 40.1203 21.2375 39.868 21.3546C39.6149 21.4721 39.4021 21.6321 39.2354 21.8315C39.0686 22.0301 38.9432 22.2669 38.8635 22.5356C38.7831 22.8028 38.7427 23.0943 38.7427 23.4015C38.7427 23.7143 38.7846 24.0055 38.8676 24.2675C38.9511 24.5316 39.0849 24.7644 39.2659 24.9569C39.4461 25.1509 39.6782 25.303 39.9564 25.4089C40.2324 25.5143 40.5678 25.5691 40.9532 25.5683C41.7465 25.5656 42.1645 25.391 42.3364 25.2969C42.3668 25.2805 42.3959 25.251 42.3594 25.167L42.1799 24.6703C42.153 24.5962 42.0767 24.6237 42.0767 24.6237C41.8802 24.6956 41.6008 24.825 40.9493 24.8237C40.5233 24.823 40.2074 24.6989 40.0097 24.5049C39.8064 24.3063 39.7073 24.0144 39.6897 23.6023L42.4365 23.6049C42.4365 23.6049 42.5088 23.6036 42.5162 23.5342C42.5188 23.5049 42.6107 22.9768 42.4345 22.3656ZM17.7053 22.9329C17.7444 22.6748 17.8159 22.4602 17.9274 22.2929C18.0955 22.0389 18.3519 21.8994 18.7123 21.8994C19.0729 21.8994 19.3112 22.0394 19.4826 22.2929C19.5954 22.4602 19.6447 22.6842 19.6642 22.9329H17.7053ZM20.4365 22.3656C20.3676 22.1088 20.1975 21.8495 20.0854 21.7309C19.9086 21.5428 19.7357 21.4114 19.5643 21.3382C19.3154 21.2337 19.0476 21.1802 18.7772 21.1808C18.435 21.1808 18.1231 21.2375 17.8707 21.3546C17.6174 21.4721 17.4049 21.6321 17.2381 21.8315C17.0714 22.0301 16.9459 22.2669 16.8663 22.5356C16.7866 22.8028 16.7455 23.0943 16.7455 23.4015C16.7455 23.7143 16.7871 24.0055 16.8703 24.2675C16.9539 24.5316 17.0877 24.7644 17.2685 24.9569C17.4488 25.1509 17.681 25.303 17.9591 25.4089C18.2352 25.5143 18.5706 25.5691 18.956 25.5683C19.7492 25.5656 20.1671 25.391 20.3392 25.2969C20.3696 25.2805 20.3985 25.251 20.3622 25.167L20.1834 24.6703C20.1556 24.5962 20.0794 24.6237 20.0794 24.6237C19.883 24.6956 19.6042 24.825 18.9514 24.8237C18.5261 24.823 18.2102 24.6989 18.0125 24.5049C17.8092 24.3063 17.7099 24.0144 17.6925 23.6023L20.4391 23.6049C20.4391 23.6049 20.5113 23.6036 20.5188 23.5342C20.5215 23.5049 20.6133 22.9768 20.4365 22.3656ZM11.7683 24.7091C11.6608 24.6246 11.646 24.6032 11.6097 24.5484C11.5556 24.4652 11.528 24.3464 11.528 24.1958C11.528 23.9572 11.6077 23.7859 11.7729 23.6706C11.7711 23.6711 12.0092 23.4671 12.5697 23.4744C12.9631 23.4799 13.3148 23.5372 13.3148 23.5372V24.7706H13.3155C13.3155 24.7706 12.9664 24.8445 12.5736 24.8678C12.0146 24.9011 11.7663 24.7086 11.7683 24.7091ZM12.8612 22.8031C12.7498 22.7951 12.6055 22.7903 12.4326 22.7903C12.1969 22.7903 11.9693 22.8196 11.7563 22.8763C11.5505 22.929 11.3561 23.018 11.1824 23.1391C11.0166 23.256 10.8802 23.409 10.784 23.5864C10.6869 23.7652 10.6376 23.9758 10.6376 24.2117C10.6376 24.4518 10.6793 24.6604 10.7631 24.8312C10.8447 25 10.968 25.1458 11.1216 25.2552C11.2741 25.3652 11.4626 25.4459 11.6812 25.4946C11.8965 25.5433 12.1407 25.5678 12.4081 25.5678C12.6898 25.5678 12.9705 25.5453 13.2425 25.4992C13.474 25.4598 13.7047 25.4158 13.9344 25.3672C14.0255 25.3458 14.1269 25.3185 14.1269 25.3185C14.1951 25.3019 14.1895 25.2298 14.1895 25.2298L14.1882 22.7491C14.1882 22.2051 14.0411 21.8017 13.7515 21.5517C13.4634 21.3023 13.0387 21.1764 12.4898 21.1764C12.2842 21.1764 11.9525 21.2044 11.7542 21.2437C11.7542 21.2437 11.1539 21.3583 10.9069 21.549C10.9069 21.549 10.853 21.5823 10.8826 21.657L11.0772 22.173C11.1012 22.2396 11.1668 22.217 11.1668 22.217C11.1668 22.217 11.1878 22.2091 11.2121 22.195C11.7405 21.911 12.4089 21.9198 12.4089 21.9198C12.7059 21.9198 12.934 21.9783 13.088 22.0951C13.2379 22.2084 13.314 22.3796 13.314 22.7411V22.8556C13.0778 22.8223 12.8612 22.8031 12.8612 22.8031ZM35.0148 21.4051C35.0187 21.3961 35.0208 21.3863 35.0209 21.3765C35.0209 21.3666 35.019 21.3569 35.0151 21.3478C35.0113 21.3387 35.0056 21.3305 34.9984 21.3236C34.9913 21.3167 34.9828 21.3113 34.9735 21.3078C34.9269 21.2899 34.6933 21.2412 34.513 21.2298C34.1682 21.2091 33.9764 21.2664 33.805 21.3426C33.6349 21.4185 33.4459 21.5411 33.3405 21.6806V21.3504C33.3405 21.3045 33.3075 21.2679 33.2615 21.2679H32.5574C32.5117 21.2679 32.4785 21.3045 32.4785 21.3504V25.3967C32.4785 25.4421 32.5163 25.4794 32.5622 25.4794H33.2838C33.2947 25.4793 33.3056 25.4772 33.3157 25.473C33.3257 25.4688 33.3349 25.4627 33.3426 25.455C33.3503 25.4473 33.3564 25.4382 33.3606 25.4282C33.3647 25.4182 33.3668 25.4075 33.3668 25.3967V23.3752C33.3668 23.104 33.3972 22.8331 33.4579 22.6633C33.5172 22.4951 33.5984 22.3606 33.6983 22.2638C33.7937 22.171 33.9101 22.102 34.0379 22.0625C34.1654 22.0239 34.3066 22.0113 34.4065 22.0113C34.5502 22.0113 34.7081 22.0479 34.7081 22.0479C34.7607 22.0539 34.7906 22.0219 34.8082 21.9747C34.8552 21.8506 34.989 21.4791 35.0146 21.4051" fill="white"></path>
    <path d="M28.2411 19.5295C28.152 19.503 28.0613 19.4816 27.9697 19.4655C27.8463 19.4455 27.7215 19.4362 27.5965 19.4376C27.0995 19.4376 26.708 19.5762 26.4334 19.8496C26.1599 20.1215 25.9743 20.5357 25.8812 21.0803L25.8473 21.2637H25.2236C25.2236 21.2637 25.148 21.2609 25.1319 21.3424L25.03 21.9071C25.0226 21.9604 25.0461 21.9944 25.1189 21.9944H25.726L25.1102 25.3892C25.0624 25.6626 25.007 25.8873 24.9455 26.0579C24.8855 26.2259 24.8269 26.352 24.7539 26.444C24.6835 26.5318 24.6175 26.5974 24.5027 26.6352C24.4082 26.6667 24.2988 26.6814 24.1793 26.6814C24.1132 26.6814 24.0248 26.6706 23.9594 26.6574C23.9081 26.6475 23.8582 26.6315 23.8108 26.6098C23.8108 26.6098 23.74 26.5833 23.7116 26.6534C23.6894 26.7114 23.5273 27.1506 23.5078 27.2048C23.4889 27.2587 23.5158 27.3007 23.5503 27.3133C23.6312 27.3413 23.6913 27.3599 23.8013 27.3859C23.954 27.4214 24.083 27.4233 24.2038 27.4233C24.4561 27.4233 24.687 27.3879 24.8781 27.3201C25.0698 27.2514 25.2372 27.1319 25.3858 26.9705C25.5457 26.7959 25.6463 26.6133 25.7421 26.3633C25.8373 26.1166 25.919 25.8099 25.9837 25.4527L26.6028 21.9944H27.5074C27.5074 21.9944 27.5835 21.997 27.5991 21.915L27.7017 21.351C27.7084 21.297 27.6856 21.2637 27.6119 21.2637H26.7336C26.7384 21.2443 26.7782 20.939 26.8789 20.6517C26.922 20.5296 27.003 20.4303 27.0712 20.3624C27.1354 20.2977 27.2144 20.2492 27.3015 20.2209C27.3886 20.1929 27.4877 20.1796 27.5965 20.1796C27.6788 20.1796 27.7605 20.1889 27.8218 20.2015C27.907 20.2196 27.94 20.229 27.9623 20.2356C28.0521 20.2623 28.0642 20.2363 28.0818 20.1935L28.2917 19.6243C28.3134 19.563 28.26 19.5368 28.2411 19.5295ZM15.9707 25.3967C15.9707 25.4419 15.9375 25.4787 15.8917 25.4787H15.1633C15.1174 25.4787 15.085 25.4421 15.085 25.3967V19.6069C15.085 19.5617 15.1174 19.5249 15.1633 19.5249H15.8915C15.9375 19.5249 15.9707 19.5615 15.9707 19.6069V25.3967Z" fill="white"></path>
  </symbol>
  <symbol fill="none" xmlns="http://www.w3.org/2000/svg" viewBox="0 0 48 48" id="Slack">
    <path d="M10.5092 29.6039C10.5092 32.2218 8.37418 34.3601 5.75587 34.3601C3.13757 34.3601 1 32.2218 1 29.6039C1 26.9859 3.13829 24.8477 5.75623 24.8477H10.5096L10.5092 29.6039ZM12.9054 29.6039C12.9054 26.9859 15.0437 24.8477 17.6616 24.8477C20.2796 24.8477 22.4179 26.9856 22.4179 29.6039V41.5096C22.4179 44.1276 20.2799 46.2659 17.6616 46.2659C15.0437 46.2659 12.9054 44.1276 12.9054 41.5096V29.6039Z" fill="#DE1C59"></path>
    <path d="M17.6616 10.5092C15.0437 10.5092 12.9054 8.37418 12.9054 5.75587C12.9054 3.13757 15.0437 1 17.6616 1C20.2796 1 22.4179 3.13829 22.4179 5.75623V10.5096L17.6616 10.5092ZM17.6616 12.9054C20.2796 12.9054 22.4179 15.0437 22.4179 17.6616C22.4179 20.2796 20.2799 22.4179 17.6616 22.4179H5.75587C3.13793 22.4179 1 20.2799 1 17.6616C1 15.0437 3.13829 12.9054 5.75623 12.9054H17.6616Z" fill="#35C5F0"></path>
    <path d="M36.7553 17.6616C36.7553 15.0437 38.8904 12.9054 41.5087 12.9054C44.127 12.9054 46.2649 15.0437 46.2649 17.6616C46.2649 20.2796 44.1266 22.4179 41.5087 22.4179H36.7553V17.6616ZM34.3591 17.6616C34.3591 20.2796 32.2209 22.4179 29.6029 22.4179C26.985 22.4179 24.8467 20.2799 24.8467 17.6616V5.75587C24.8467 3.13793 26.9846 1 29.6029 1C32.2209 1 34.3591 3.13829 34.3591 5.75623V17.6616Z" fill="#2EB57D"></path>
    <path d="M29.6029 36.7563C32.2209 36.7563 34.3591 38.8913 34.3591 41.5096C34.3591 44.1279 32.2209 46.2659 29.6029 46.2659C26.985 46.2659 24.8467 44.1276 24.8467 41.5096V36.7563H29.6029ZM29.6029 34.3601C26.985 34.3601 24.8467 32.2218 24.8467 29.6039C24.8467 26.9859 26.9846 24.8477 29.6029 24.8477H41.5087C44.1266 24.8477 46.2649 26.9856 46.2649 29.6039C46.2649 32.2218 44.1266 34.3601 41.5087 34.3601H29.6029Z" fill="#EBB02E"></path>
  </symbol>
  <symbol fill="none" xmlns="http://www.w3.org/2000/svg" viewBox="0 0 48 48" id="Teams">
    <g clip-path="url(#clip0_591_287)">
      <path d="M33.4806 18.7813H45.8791C47.0506 18.7813 48.0001 19.7359 48.0001 20.9133V32.2656C48.0001 36.5931 44.5102 40.1014 40.2051 40.1014H40.1682C35.8632 40.102 32.3726 36.5944 32.3721 32.2667V19.8957C32.372 19.7494 32.4006 19.6044 32.4563 19.4692C32.512 19.334 32.5936 19.2111 32.6966 19.1076C32.7995 19.0041 32.9217 18.922 33.0563 18.866C33.1908 18.81 33.335 18.7812 33.4806 18.7813Z" fill="#5059C9"></path>
      <path d="M41.8612 16.5385C44.6356 16.5385 46.8846 14.2778 46.8846 11.489C46.8846 8.70021 44.6356 6.43945 41.8612 6.43945C39.0869 6.43945 36.8379 8.70021 36.8379 11.489C36.8379 14.2778 39.0869 16.5385 41.8612 16.5385Z" fill="#5059C9"></path>
      <path d="M26.2315 16.5367C30.2389 16.5367 33.4874 13.2712 33.4874 9.24298C33.4874 5.21475 30.2389 1.94922 26.2315 1.94922C22.2242 1.94922 18.9756 5.21475 18.9756 9.24298C18.9756 13.2712 22.2242 16.5367 26.2315 16.5367Z" fill="#7B83EB"></path>
      <path d="M35.9073 18.7812H15.4413C14.2838 18.8101 13.3683 19.7757 13.3951 20.9391V33.8871C13.2335 40.8691 18.7286 46.6632 25.6742 46.8341C32.6198 46.6632 38.1149 40.8691 37.9535 33.8871V20.9391C37.9803 19.7757 37.0647 18.8101 35.9073 18.7812Z" fill="#7B83EB"></path>
      <path opacity="0.1" d="M26.7908 18.7812V36.9258C26.7881 37.3327 26.6659 37.7298 26.4395 38.0672C26.2131 38.4046 25.8926 38.6673 25.5182 38.8222C25.2745 38.9259 25.0125 38.9792 24.7479 38.9792H14.3774C14.2323 38.6089 14.0984 38.2385 13.9867 37.8572C13.5959 36.5696 13.3966 35.231 13.3951 33.8848V20.9358C13.3683 19.7742 14.2824 18.8101 15.4379 18.7814L26.7908 18.7812Z" fill="black"></path>
      <path opacity="0.2" d="M25.674 18.7812V38.048C25.674 38.3139 25.621 38.5772 25.5178 38.8222C25.3637 39.1986 25.1024 39.5207 24.7667 39.7483C24.4311 39.9759 24.036 40.0987 23.6312 40.1014H14.9021C14.7123 39.7311 14.5336 39.3607 14.3774 38.9792C14.2274 38.6125 14.0969 38.238 13.9867 37.8572C13.5959 36.5696 13.3966 35.231 13.3951 33.8848V20.9358C13.3683 19.7742 14.2824 18.8101 15.4379 18.7814L25.674 18.7812Z" fill="black"></path>
      <path opacity="0.2" d="M25.6742 18.7812V35.8037C25.6658 36.9342 24.7562 37.8487 23.6314 37.8572H13.9867C13.5959 36.5696 13.3966 35.231 13.3951 33.8848V20.9358C13.3683 19.7742 14.2824 18.8101 15.4379 18.7814L25.6742 18.7812Z" fill="black"></path>
      <path opacity="0.2" d="M24.558 18.7812V35.8037C24.5494 36.9342 23.6398 37.8487 22.5152 37.8572H13.9867C13.5959 36.5696 13.3966 35.231 13.3951 33.8848V20.9358C13.3683 19.7742 14.2824 18.8101 15.4379 18.7814L24.558 18.7812Z" fill="black"></path>
      <path opacity="0.1" d="M26.7909 12.9793V16.5138C26.6011 16.5251 26.4224 16.5364 26.2327 16.5364C26.0429 16.5364 25.8642 16.5251 25.6745 16.5138C25.2977 16.4887 24.9241 16.4286 24.5583 16.3344C23.4439 16.0691 22.4078 15.5424 21.5347 14.7974C20.6616 14.0524 19.9763 13.1102 19.5349 12.048C19.3808 11.6861 19.2612 11.3104 19.1777 10.9258H24.748C25.8743 10.9301 26.7865 11.8469 26.7909 12.9793Z" fill="black"></path>
      <path opacity="0.2" d="M25.6745 14.1021V16.5147C25.2977 16.4895 24.9241 16.4295 24.5583 16.3352C23.444 16.0699 22.4079 15.5432 21.5348 14.7982C20.6618 14.0532 19.9765 13.1111 19.5352 12.0488H23.6317C24.7582 12.053 25.6702 12.9699 25.6745 14.1021Z" fill="black"></path>
      <path opacity="0.2" d="M25.6745 14.1021V16.5147C25.2977 16.4895 24.9241 16.4295 24.5583 16.3352C23.444 16.0699 22.4079 15.5432 21.5348 14.7982C20.6618 14.0532 19.9765 13.1111 19.5352 12.0488H23.6317C24.7582 12.053 25.6702 12.9699 25.6745 14.1021Z" fill="black"></path>
      <path opacity="0.2" d="M24.5575 14.1023V16.3354C23.4431 16.0701 22.407 15.5434 21.5339 14.7983C20.6608 14.0533 19.9756 13.1111 19.5342 12.0488H22.5147C23.6412 12.0532 24.5532 12.9701 24.5575 14.1023Z" fill="black"></path>
      <path d="M2.0462 12.049H22.512C23.6422 12.049 24.5584 12.9699 24.5584 14.1059V34.6786C24.5584 35.8145 23.6422 36.7354 22.5122 36.7354H2.0462C0.916132 36.7354 0 35.8145 0 34.6786V14.1061C0 12.9697 0.916132 12.049 2.0462 12.049Z" fill="url(#paint0_linear_591_287)"></path>
    </g>
    <defs>
      <linearGradient id="paint0_linear_591_287" x1="426.628" y1="-148.661" x2="2041.76" y2="2634.14" gradientUnits="userSpaceOnUse">
        <stop stop-color="#5A62C3"></stop>
        <stop offset="0.5" stop-color="#4D55BD"></stop>
        <stop offset="1" stop-color="#3940AB"></stop>
      </linearGradient>
      <clipPath id="clip0_591_287">
        <rect width="48" height="48" fill="white"></rect>
      </clipPath>
    </defs>
  </symbol>
  <symbol fill="none" xmlns="http://www.w3.org/2000/svg" viewBox="0 0 48 48" id="Zendesk">
    <path d="M22.248 16.4505V40H1L22.248 16.4505ZM22.248 8C22.248 13.3844 17.4897 17.7523 11.624 17.7523C5.7583 17.7523 1 13.3846 1 8H22.248ZM25.752 40C25.752 34.6101 30.5045 30.2477 36.376 30.2477C42.2474 30.2477 47 34.6154 47 40H25.752ZM25.752 31.544V8H47L25.752 31.544Z" fill="#03363D"></path>
  </symbol>
</svg>