<svg width="48" height="48" viewBox="0 0 48 48" fill="none" xmlns="http://www.w3.org/2000/svg">
<g clip-path="url(#clip0_591_287)">
<path d="M33.4806 18.7813H45.8791C47.0506 18.7813 48.0001 19.7359 48.0001 20.9133V32.2656C48.0001 36.5931 44.5102 40.1014 40.2051 40.1014H40.1682C35.8632 40.102 32.3726 36.5944 32.3721 32.2667V19.8957C32.372 19.7494 32.4006 19.6044 32.4563 19.4692C32.512 19.334 32.5936 19.2111 32.6966 19.1076C32.7995 19.0041 32.9217 18.922 33.0563 18.866C33.1908 18.81 33.335 18.7812 33.4806 18.7813Z" fill="#5059C9"/>
<path d="M41.8612 16.5385C44.6356 16.5385 46.8846 14.2778 46.8846 11.489C46.8846 8.70021 44.6356 6.43945 41.8612 6.43945C39.0869 6.43945 36.8379 8.70021 36.8379 11.489C36.8379 14.2778 39.0869 16.5385 41.8612 16.5385Z" fill="#5059C9"/>
<path d="M26.2315 16.5367C30.2389 16.5367 33.4874 13.2712 33.4874 9.24298C33.4874 5.21475 30.2389 1.94922 26.2315 1.94922C22.2242 1.94922 18.9756 5.21475 18.9756 9.24298C18.9756 13.2712 22.2242 16.5367 26.2315 16.5367Z" fill="#7B83EB"/>
<path d="M35.9073 18.7812H15.4413C14.2838 18.8101 13.3683 19.7757 13.3951 20.9391V33.8871C13.2335 40.8691 18.7286 46.6632 25.6742 46.8341C32.6198 46.6632 38.1149 40.8691 37.9535 33.8871V20.9391C37.9803 19.7757 37.0647 18.8101 35.9073 18.7812Z" fill="#7B83EB"/>
<path opacity="0.1" d="M26.7908 18.7812V36.9258C26.7881 37.3327 26.6659 37.7298 26.4395 38.0672C26.2131 38.4046 25.8926 38.6673 25.5182 38.8222C25.2745 38.9259 25.0125 38.9792 24.7479 38.9792H14.3774C14.2323 38.6089 14.0984 38.2385 13.9867 37.8572C13.5959 36.5696 13.3966 35.231 13.3951 33.8848V20.9358C13.3683 19.7742 14.2824 18.8101 15.4379 18.7814L26.7908 18.7812Z" fill="black"/>
<path opacity="0.2" d="M25.674 18.7812V38.048C25.674 38.3139 25.621 38.5772 25.5178 38.8222C25.3637 39.1986 25.1024 39.5207 24.7667 39.7483C24.4311 39.9759 24.036 40.0987 23.6312 40.1014H14.9021C14.7123 39.7311 14.5336 39.3607 14.3774 38.9792C14.2274 38.6125 14.0969 38.238 13.9867 37.8572C13.5959 36.5696 13.3966 35.231 13.3951 33.8848V20.9358C13.3683 19.7742 14.2824 18.8101 15.4379 18.7814L25.674 18.7812Z" fill="black"/>
<path opacity="0.2" d="M25.6742 18.7812V35.8037C25.6658 36.9342 24.7562 37.8487 23.6314 37.8572H13.9867C13.5959 36.5696 13.3966 35.231 13.3951 33.8848V20.9358C13.3683 19.7742 14.2824 18.8101 15.4379 18.7814L25.6742 18.7812Z" fill="black"/>
<path opacity="0.2" d="M24.558 18.7812V35.8037C24.5494 36.9342 23.6398 37.8487 22.5152 37.8572H13.9867C13.5959 36.5696 13.3966 35.231 13.3951 33.8848V20.9358C13.3683 19.7742 14.2824 18.8101 15.4379 18.7814L24.558 18.7812Z" fill="black"/>
<path opacity="0.1" d="M26.7909 12.9793V16.5138C26.6011 16.5251 26.4224 16.5364 26.2327 16.5364C26.0429 16.5364 25.8642 16.5251 25.6745 16.5138C25.2977 16.4887 24.9241 16.4286 24.5583 16.3344C23.4439 16.0691 22.4078 15.5424 21.5347 14.7974C20.6616 14.0524 19.9763 13.1102 19.5349 12.048C19.3808 11.6861 19.2612 11.3104 19.1777 10.9258H24.748C25.8743 10.9301 26.7865 11.8469 26.7909 12.9793Z" fill="black"/>
<path opacity="0.2" d="M25.6745 14.1021V16.5147C25.2977 16.4895 24.9241 16.4295 24.5583 16.3352C23.444 16.0699 22.4079 15.5432 21.5348 14.7982C20.6618 14.0532 19.9765 13.1111 19.5352 12.0488H23.6317C24.7582 12.053 25.6702 12.9699 25.6745 14.1021Z" fill="black"/>
<path opacity="0.2" d="M25.6745 14.1021V16.5147C25.2977 16.4895 24.9241 16.4295 24.5583 16.3352C23.444 16.0699 22.4079 15.5432 21.5348 14.7982C20.6618 14.0532 19.9765 13.1111 19.5352 12.0488H23.6317C24.7582 12.053 25.6702 12.9699 25.6745 14.1021Z" fill="black"/>
<path opacity="0.2" d="M24.5575 14.1023V16.3354C23.4431 16.0701 22.407 15.5434 21.5339 14.7983C20.6608 14.0533 19.9756 13.1111 19.5342 12.0488H22.5147C23.6412 12.0532 24.5532 12.9701 24.5575 14.1023Z" fill="black"/>
<path d="M2.0462 12.049H22.512C23.6422 12.049 24.5584 12.9699 24.5584 14.1059V34.6786C24.5584 35.8145 23.6422 36.7354 22.5122 36.7354H2.0462C0.916132 36.7354 0 35.8145 0 34.6786V14.1061C0 12.9697 0.916132 12.049 2.0462 12.049Z" fill="url(#paint0_linear_591_287)"/>
</g>
<defs>
<linearGradient id="paint0_linear_591_287" x1="426.628" y1="-148.661" x2="2041.76" y2="2634.14" gradientUnits="userSpaceOnUse">
<stop stop-color="#5A62C3"/>
<stop offset="0.5" stop-color="#4D55BD"/>
<stop offset="1" stop-color="#3940AB"/>
</linearGradient>
<clipPath id="clip0_591_287">
<rect width="48" height="48" fill="white"/>
</clipPath>
</defs>
</svg>
